<svg xmlns="http://www.w3.org/2000/svg" width="128" height="128" viewBox="0 0 128 128">
  <defs>
    <linearGradient id="lid" x1="0" y1="0" x2="0" y2="1">
      <stop offset="0%" stop-color="#FFFFFF"/>
      <stop offset="100%" stop-color="#D8E2F0"/>
    </linearGradient>
    <linearGradient id="body" x1="0" y1="0" x2="0" y2="1">
      <stop offset="0%" stop-color="#ECF3FF"/>
      <stop offset="100%" stop-color="#C7D6EC"/>
    </linearGradient>
    <linearGradient id="rib" x1="0" y1="0" x2="0" y2="1">
      <stop offset="0%" stop-color="#C9D6E8"/>
      <stop offset="100%" stop-color="#9FA9B8"/>
    </linearGradient>
    <radialGradient id="gloss" cx="50%" cy="0%" r="70%">
      <stop offset="0%" stop-color="#FFFFFF" stop-opacity="0.8"/>
      <stop offset="100%" stop-color="#FFFFFF" stop-opacity="0"/>
    </radialGradient>
    <radialGradient id="inner" cx="50%" cy="60%" r="70%">
      <stop offset="0%" stop-color="#9EB7D6" stop-opacity="0.25"/>
      <stop offset="100%" stop-color="#9EB7D6" stop-opacity="0"/>
    </radialGradient>
  </defs>
  <!-- Lid with rim -->
  <rect x="22" y="20" width="84" height="16" rx="8" fill="url(#lid)" stroke="#9FA9B8"/>
  <rect x="28" y="18" width="72" height="6" rx="3" fill="#FFFFFF" opacity="0.7"/>
  <!-- Body -->
  <rect x="16" y="34" width="96" height="86" rx="12" fill="url(#body)" stroke="#9FA9B8"/>
  <!-- Ribs -->
  <g opacity="0.95">
    <rect x="28" y="40" width="5" height="72" rx="2.5" fill="url(#rib)"/>
    <rect x="44" y="40" width="5" height="72" rx="2.5" fill="url(#rib)"/>
    <rect x="60" y="40" width="5" height="72" rx="2.5" fill="url(#rib)"/>
    <rect x="76" y="40" width="5" height="72" rx="2.5" fill="url(#rib)"/>
    <rect x="92" y="40" width="5" height="72" rx="2.5" fill="url(#rib)"/>
  </g>
  <!-- Inner shadow/blue tint -->
  <rect x="16" y="34" width="96" height="86" rx="12" fill="url(#inner)"/>
  <!-- Gloss highlight -->
  <ellipse cx="64" cy="40" rx="46" ry="12" fill="url(#gloss)"/>
  <!-- Base shadow -->
  <ellipse cx="64" cy="124" rx="36" ry="6" fill="#000" opacity="0.08"/>
</svg>
