<svg xmlns="http://www.w3.org/2000/svg" width="128" height="128" viewBox="0 0 128 128">
  <defs>
    <linearGradient id="glass" x1="0" y1="0" x2="0" y2="1">
      <stop offset="0%" stop-color="#9FD0FF"/>
      <stop offset="100%" stop-color="#2D88FF"/>
    </linearGradient>
    <radialGradient id="shine" cx="50%" cy="0%" r="80%">
      <stop offset="0%" stop-color="#FFFFFF" stop-opacity="0.85"/>
      <stop offset="100%" stop-color="#FFFFFF" stop-opacity="0"/>
    </radialGradient>
  </defs>
  <rect x="12" y="12" width="104" height="104" rx="18" fill="url(#glass)" stroke="#1B5FCC"/>
  <ellipse cx="64" cy="26" rx="40" ry="10" fill="url(#shine)"/>
  <!-- Knight silhouette -->
  <path d="M76 36c-6 2-10 6-12 10-4 6-10 6-10 6l4 8-8 2 4 6-6 4 4 6h32l4-8-6-6 6-6-6-12c-1-2-2-3-2-4 0-4-2-6-4-6zM50 84h28v10H50z" fill="#F7FAFF" opacity="0.95" stroke="#1B5FCC"/>
</svg>
