<svg xmlns="http://www.w3.org/2000/svg" width="128" height="128" viewBox="0 0 128 128">
  <defs>
    <!-- Aqua glass panel -->
    <linearGradient id="glass" x1="0" y1="0" x2="0" y2="1">
      <stop offset="0%" stop-color="#9FD0FF"/>
      <stop offset="100%" stop-color="#2D88FF"/>
    </linearGradient>
    <radialGradient id="panelShine" cx="50%" cy="0%" r="80%">
      <stop offset="0%" stop-color="#FFFFFF" stop-opacity="0.85"/>
      <stop offset="100%" stop-color="#FFFFFF" stop-opacity="0"/>
    </radialGradient>

    <!-- Metal fills for queen -->
    <radialGradient id="metalRad" cx="45%" cy="45%" r="65%">
      <stop offset="0%" stop-color="#F0F4FA"/>
      <stop offset="100%" stop-color="#BCC9D9"/>
    </radialGradient>
    <linearGradient id="metalLin" x1="0" y1="0" x2="0" y2="1">
      <stop offset="0%" stop-color="#E2E9F3"/>
      <stop offset="100%" stop-color="#A7B3C3"/>
    </linearGradient>

    <!-- Highlight on body -->
    <radialGradient id="bodyShine" cx="50%" cy="30%" r="70%">
      <stop offset="0%" stop-color="#FFFFFF" stop-opacity="0.55"/>
      <stop offset="100%" stop-color="#FFFFFF" stop-opacity="0"/>
    </radialGradient>

    <!-- Soft shadow filter -->
    <filter id="softShadow" x="-30%" y="-30%" width="160%" height="160%">
      <feOffset dy="1" in="SourceAlpha" result="o"/>
      <feGaussianBlur in="o" stdDeviation="1.5" result="b"/>
      <feColorMatrix in="b" type="matrix" values="0 0 0 0 0  0 0 0 0 0  0 0 0 0 0  0 0 0 0.25 0"/>
    </filter>
  </defs>

  <!-- Glass panel -->
  <rect x="12" y="12" width="104" height="104" rx="18" fill="url(#glass)" stroke="#1B5FCC"/>
  <ellipse cx="64" cy="26" rx="40" ry="10" fill="url(#panelShine)"/>

  <!-- Queen group -->
  <g transform="translate(64 78)">
    <!-- Base shadow -->
    <ellipse cx="0" cy="28" rx="28" ry="6" fill="#000" opacity="0.08" filter="url(#softShadow)"/>

    <!-- Base -->
    <path d="M-28,22 h56 a4,4 0 0 1 0,8 h-56 a4,4 0 0 1 0,-8 z" fill="url(#metalLin)" stroke="#8E99AA"/>

    <!-- Pedestal -->
    <path d="M-20,12 h40 a3,3 0 0 1 3,3 v6 h-46 v-6 a3,3 0 0 1 3,-3 z" fill="url(#metalRad)" stroke="#9FA9B8"/>

    <!-- Body (beveled silhouette) -->
    <path d="M0,-26
             C -12,-24 -18,-18 -18,-10
             C -18,0 -10,6 -8,10
             C -6,14 -6,16 -8,20
             h32
             c-2,-4 -2,-6 0,-10
             c2,-4 10,-10 10,-20
             c0,-8 -6,-14 -18,-16
             z" fill="url(#metalRad)" stroke="#9FA9B8"/>
    <path d="M0,-22 c-9,0 -14,6 -14,12 c0,7 6,12 14,12 c8,0 14,-5 14,-12 c0,-6 -5,-12 -14,-12 z" fill="url(#bodyShine)"/>

    <!-- Collar -->
    <path d="M-16,-6 h32 a6,6 0 0 1 0,12 h-32 a6,6 0 0 1 0,-12 z" fill="url(#metalLin)" stroke="#8E99AA"/>

    <!-- Crown stem -->
    <path d="M-8,-28 h16 v6 h-16 z" fill="url(#metalLin)" stroke="#8E99AA"/>

    <!-- Crown band -->
    <path d="M-18,-30 c6,-6 12,-8 18,-8 c6,0 12,2 18,8 l-4,6 c-4,-4 -9,-6 -14,-6 c-5,0 -10,2 -14,6 z" fill="url(#metalRad)" stroke="#8E99AA"/>

    <!-- Crown orbs -->
    <g fill="#F7FAFF" stroke="#1B5FCC">
      <circle cx="-18" cy="-30" r="3"/>
      <circle cx="-9" cy="-34" r="3.4"/>
      <circle cx="0" cy="-36" r="3.8"/>
      <circle cx="9" cy="-34" r="3.4"/>
      <circle cx="18" cy="-30" r="3"/>
    </g>
  </g>
</svg>
