<svg width="1081" height="256" viewBox="0 0 1081 256" fill="none" xmlns="http://www.w3.org/2000/svg">
<path d="M1023.67 215.209C1012.22 215.209 1002.05 212.628 993.18 207.465C984.307 202.141 977.289 194.8 972.126 185.443C967.125 175.924 964.624 164.873 964.624 152.289C964.624 139.544 967.125 128.492 972.126 119.135C977.128 109.778 984.065 102.518 992.938 97.3551C1001.97 92.0311 1012.38 89.3691 1024.16 89.3691C1035.93 89.3691 1046.02 92.0311 1054.41 97.3551C1062.8 102.518 1069.25 109.374 1073.77 117.925C1078.28 126.314 1080.54 135.51 1080.54 145.513C1080.54 147.126 1080.54 148.901 1080.54 150.837C1080.54 152.612 1080.46 154.628 1080.3 156.887H979.87V141.157H1060.46C1059.97 129.702 1056.26 120.829 1049.32 114.537C1042.55 108.245 1034 105.099 1023.67 105.099C1016.73 105.099 1010.28 106.632 1004.31 109.697C998.343 112.762 993.503 117.36 989.792 123.491C986.243 129.622 984.468 137.366 984.468 146.723V153.499C984.468 163.502 986.324 171.81 990.034 178.425C993.745 185.04 998.585 190.041 1004.55 193.429C1010.68 196.656 1017.06 198.269 1023.67 198.269C1032.06 198.269 1039.08 196.333 1044.73 192.461C1050.37 188.589 1054.49 183.265 1057.07 176.489H1077.15C1075.06 183.91 1071.59 190.525 1066.75 196.333C1061.91 202.141 1055.86 206.739 1048.6 210.127C1041.5 213.515 1033.19 215.209 1023.67 215.209Z" fill="#2A5AB7" style="fill:#2A5AB7;fill:color(display-p3 0.1647 0.3529 0.7176);fill-opacity:1;"/>
<path d="M888.477 212.305L845.401 92.2734H866.697L901.061 196.091H902.029L936.635 92.2734H957.447L914.371 212.305H888.477Z" fill="#2A5AB7" style="fill:#2A5AB7;fill:color(display-p3 0.1647 0.3529 0.7176);fill-opacity:1;"/>
<path d="M810.247 212.304V92.272H830.575V212.304H810.247ZM820.411 68.314C816.378 68.314 812.99 66.9427 810.247 64.2C807.504 61.4573 806.133 58.0693 806.133 54.036C806.133 50.164 807.504 46.8567 810.247 44.114C812.99 41.3713 816.378 40 820.411 40C824.283 40 827.59 41.3713 830.333 44.114C833.076 46.8567 834.447 50.2447 834.447 54.278C834.447 58.15 833.076 61.4573 830.333 64.2C827.59 66.9427 824.283 68.314 820.411 68.314Z" fill="#2A5AB7" style="fill:#2A5AB7;fill:color(display-p3 0.1647 0.3529 0.7176);fill-opacity:1;"/>
<path d="M774.874 212.305C767.614 212.305 761.321 211.175 755.997 208.917C750.673 206.658 746.559 202.867 743.655 197.543C740.913 192.057 739.542 184.717 739.542 175.521V106.793H718.729V92.2726H739.542L741.961 63.4746H759.87V92.2726H795.202V106.793H759.87V175.521C759.87 183.91 761.402 189.557 764.467 192.461C767.533 195.203 772.937 196.575 780.681 196.575H793.266V212.305H774.874Z" fill="#2A5AB7" style="fill:#2A5AB7;fill:color(display-p3 0.1647 0.3529 0.7176);fill-opacity:1;"/>
<path d="M650.4 215.209C640.882 215.209 632.896 213.515 626.442 210.127C619.989 206.739 615.149 202.222 611.922 196.575C608.857 190.928 607.324 184.798 607.324 178.183C607.324 169.955 609.422 163.018 613.616 157.371C617.972 151.724 624.022 147.449 631.766 144.545C639.672 141.48 648.948 139.947 659.596 139.947H692.024C692.024 132.042 690.814 125.508 688.394 120.345C685.974 115.182 682.506 111.391 677.988 108.971C673.471 106.39 668.066 105.099 661.774 105.099C653.869 105.099 647.012 107.116 641.204 111.149C635.396 115.182 631.847 121.394 630.556 129.783H609.744C610.712 121.071 613.536 113.73 618.214 107.761C623.054 101.792 629.185 97.2745 636.606 94.2091C644.189 90.9825 652.578 89.3691 661.774 89.3691C673.229 89.3691 682.667 91.4665 690.088 95.6611C697.671 99.6945 703.237 105.422 706.786 112.843C710.497 120.103 712.352 128.654 712.352 138.495V212.305H695.412L693.476 191.735H692.508C690.25 195.607 687.588 198.995 684.522 201.899C681.618 204.803 678.392 207.223 674.842 209.159C671.293 211.095 667.421 212.547 663.226 213.515C659.193 214.644 654.918 215.209 650.4 215.209ZM654.03 198.027C660.161 198.027 665.566 196.898 670.244 194.639C674.923 192.219 678.876 188.992 682.102 184.959C685.329 180.926 687.749 176.408 689.362 171.407C691.137 166.244 692.024 161.001 692.024 155.677H661.29C653.385 155.677 647.012 156.645 642.172 158.581C637.332 160.356 633.864 162.856 631.766 166.083C629.669 169.31 628.62 173.02 628.62 177.215C628.62 181.41 629.588 185.12 631.524 188.347C633.622 191.412 636.526 193.832 640.236 195.607C644.108 197.22 648.706 198.027 654.03 198.027Z" fill="#2A5AB7" style="fill:#2A5AB7;fill:color(display-p3 0.1647 0.3529 0.7176);fill-opacity:1;"/>
<path d="M568.888 212.304V42.9043H589.216V212.304H568.888Z" fill="#2A5AB7" style="fill:#2A5AB7;fill:color(display-p3 0.1647 0.3529 0.7176);fill-opacity:1;"/>
<path d="M496.188 215.209C484.733 215.209 474.569 212.628 465.696 207.465C456.823 202.141 449.805 194.8 444.642 185.443C439.641 175.924 437.14 164.873 437.14 152.289C437.14 139.544 439.641 128.492 444.642 119.135C449.643 109.778 456.581 102.518 465.454 97.3551C474.489 92.0311 484.895 89.3691 496.672 89.3691C508.449 89.3691 518.533 92.0311 526.922 97.3551C535.311 102.518 541.765 109.374 546.282 117.925C550.799 126.314 553.058 135.51 553.058 145.513C553.058 147.126 553.058 148.901 553.058 150.837C553.058 152.612 552.977 154.628 552.816 156.887H452.386V141.157H532.972C532.488 129.702 528.777 120.829 521.84 114.537C515.064 108.245 506.513 105.099 496.188 105.099C489.251 105.099 482.797 106.632 476.828 109.697C470.859 112.762 466.019 117.36 462.308 123.491C458.759 129.622 456.984 137.366 456.984 146.723V153.499C456.984 163.502 458.839 171.81 462.55 178.425C466.261 185.04 471.101 190.041 477.07 193.429C483.201 196.656 489.573 198.269 496.188 198.269C504.577 198.269 511.595 196.333 517.242 192.461C522.889 188.589 527.003 183.265 529.584 176.489H549.67C547.573 183.91 544.104 190.525 539.264 196.333C534.424 202.141 528.374 206.739 521.114 210.127C514.015 213.515 505.707 215.209 496.188 215.209Z" fill="#2A5AB7" style="fill:#2A5AB7;fill:color(display-p3 0.1647 0.3529 0.7176);fill-opacity:1;"/>
<path d="M313.89 212.304V42.9043H368.582C381.811 42.9043 392.621 45.163 401.01 49.6803C409.399 54.0363 415.611 59.925 419.644 67.3463C423.677 74.7676 425.694 83.157 425.694 92.5143C425.694 101.549 423.597 109.858 419.402 117.44C415.369 125.023 409.077 131.073 400.526 135.59C391.975 140.108 381.005 142.366 367.614 142.366H334.218V212.304H313.89ZM403.43 212.304L366.162 136.558H388.91L427.388 212.304H403.43ZM334.218 126.394H367.13C380.037 126.394 389.475 123.248 395.444 116.956C401.575 110.664 404.64 102.598 404.64 92.7563C404.64 82.7536 401.655 74.8483 395.686 69.0403C389.878 63.071 380.279 60.0863 366.888 60.0863H334.218V126.394Z" fill="#2A5AB7" style="fill:#2A5AB7;fill:color(display-p3 0.1647 0.3529 0.7176);fill-opacity:1;"/>
<rect width="45.2908" height="45.2908" transform="matrix(0.707187 -0.707026 0.707187 0.707026 0 96.0059)" fill="#2A5AB7" style="fill:#2A5AB7;fill:color(display-p3 0.1647 0.3529 0.7176);fill-opacity:1;"/>
<rect width="45.2908" height="45.2908" transform="matrix(0.707187 -0.707026 0.707187 0.707026 0 159.992)" fill="#2A5AB7" style="fill:#2A5AB7;fill:color(display-p3 0.1647 0.3529 0.7176);fill-opacity:1;"/>
<rect width="45.2908" height="45.2908" transform="matrix(0.707187 -0.707026 0.707187 0.707026 63.9805 32.0234)" fill="#2A5AB7" style="fill:#2A5AB7;fill:color(display-p3 0.1647 0.3529 0.7176);fill-opacity:1;"/>
<rect width="45.2908" height="45.2908" transform="matrix(0.707187 -0.707026 0.707187 0.707026 63.9805 96.0059)" fill="#2A5AB7" style="fill:#2A5AB7;fill:color(display-p3 0.1647 0.3529 0.7176);fill-opacity:1;"/>
<rect width="45.2908" height="45.2908" transform="matrix(0.707187 -0.707026 0.707187 0.707026 63.9805 159.992)" fill="#2A5AB7" style="fill:#2A5AB7;fill:color(display-p3 0.1647 0.3529 0.7176);fill-opacity:1;"/>
<rect width="45.2908" height="45.2908" transform="matrix(0.707187 -0.707026 0.707187 0.707026 63.9805 223.977)" fill="#2A5AB7" style="fill:#2A5AB7;fill:color(display-p3 0.1647 0.3529 0.7176);fill-opacity:1;"/>
<rect width="45.2908" height="45.2908" transform="matrix(0.707187 -0.707026 0.707187 0.707026 127.961 32.0234)" fill="#2A5AB7" style="fill:#2A5AB7;fill:color(display-p3 0.1647 0.3529 0.7176);fill-opacity:1;"/>
<rect width="45.2908" height="45.2908" transform="matrix(0.707187 -0.707026 0.707187 0.707026 127.961 96.0059)" fill="#2A5AB7" style="fill:#2A5AB7;fill:color(display-p3 0.1647 0.3529 0.7176);fill-opacity:1;"/>
<rect width="45.2908" height="45.2908" transform="matrix(0.707187 -0.707026 0.707187 0.707026 127.961 159.992)" fill="#2A5AB7" style="fill:#2A5AB7;fill:color(display-p3 0.1647 0.3529 0.7176);fill-opacity:1;"/>
<rect width="45.2908" height="45.2908" transform="matrix(0.707187 -0.707026 0.707187 0.707026 127.961 223.977)" fill="#2A5AB7" style="fill:#2A5AB7;fill:color(display-p3 0.1647 0.3529 0.7176);fill-opacity:1;"/>
<rect width="45.2908" height="45.2908" transform="matrix(0.707187 -0.707026 0.707187 0.707026 191.942 96.0059)" fill="#2A5AB7" style="fill:#2A5AB7;fill:color(display-p3 0.1647 0.3529 0.7176);fill-opacity:1;"/>
<rect width="45.2908" height="45.2908" transform="matrix(0.707187 -0.707026 0.707187 0.707026 191.942 159.992)" fill="#2A5AB7" style="fill:#2A5AB7;fill:color(display-p3 0.1647 0.3529 0.7176);fill-opacity:1;"/>
</svg>
