<svg width="2159" height="256" viewBox="0 0 2159 256" fill="none" xmlns="http://www.w3.org/2000/svg">
<path d="M2074.85 117.648C2074.85 153.464 2158.34 123.94 2158.34 176.938C2158.34 200.896 2137.05 216.142 2106.8 216.142C2076.31 216.142 2055.01 201.622 2050.17 171.372H2071.47C2074.37 189.28 2087.68 199.202 2107.52 199.202C2126.88 199.202 2137.05 190.49 2137.05 178.39C2137.05 143.3 2054.53 172.34 2054.53 119.1C2054.53 99.4978 2069.77 81.5898 2101.23 81.5898C2129.06 81.5898 2149.63 94.6578 2153.75 126.602H2132.45C2129.3 106.516 2118.17 99.0138 2100.02 99.0138C2084.05 99.0138 2074.85 107 2074.85 117.648Z" fill="black" style="fill:black;fill-opacity:1;"/>
<path d="M2038.97 171.372C2031.96 201.38 2010.42 216.142 1981.14 216.142C1943.87 216.142 1921.36 190.974 1921.36 149.108C1921.36 105.548 1943.87 81.5898 1979.92 81.5898C2016.22 81.5898 2038.01 106.516 2038.01 147.414V152.738H1943.14C1944.35 181.536 1957.9 197.75 1981.14 197.75C1999.29 197.75 2012.11 189.038 2016.71 171.372H2038.97ZM1979.92 99.9818C1959.35 99.9818 1947.01 112.808 1943.87 136.766H2015.74C2012.84 113.05 2000.01 99.9818 1979.92 99.9818Z" fill="black" style="fill:black;fill-opacity:1;"/>
<path d="M1880.09 67.554V38.998H1901.39V67.554H1880.09ZM1880.09 213.238V84.7361H1901.39V213.238H1880.09Z" fill="black" style="fill:black;fill-opacity:1;"/>
<path d="M1797.07 213.238V84.7358H1818.37V104.58C1827.08 88.8499 1840.88 81.5898 1856.36 81.5898C1861.45 81.5898 1866.04 82.7998 1868.46 84.7358V103.854C1864.83 102.644 1860.24 102.16 1855.15 102.16C1829.5 102.16 1818.37 118.132 1818.37 141.364V213.238H1797.07Z" fill="black" style="fill:black;fill-opacity:1;"/>
<path d="M1734.45 176.213V101.677H1716.54V84.7369H1734.45V55.2129H1755.74V84.7369H1784.06V101.677H1755.74V176.213C1755.74 191.701 1760.34 198.961 1779.22 198.961H1783.57V214.207C1781.15 215.417 1775.83 216.143 1769.78 216.143C1745.82 216.143 1734.45 203.317 1734.45 176.213Z" fill="black" style="fill:black;fill-opacity:1;"/>
<path d="M1629.99 117.648C1629.99 153.464 1713.48 123.94 1713.48 176.938C1713.48 200.896 1692.18 216.142 1661.93 216.142C1631.44 216.142 1610.15 201.622 1605.31 171.372H1626.6C1629.51 189.28 1642.82 199.202 1662.66 199.202C1682.02 199.202 1692.18 190.49 1692.18 178.39C1692.18 143.3 1609.66 172.34 1609.66 119.1C1609.66 99.4978 1624.91 81.5898 1656.37 81.5898C1684.2 81.5898 1704.77 94.6578 1708.88 126.602H1687.59C1684.44 106.516 1673.31 99.0138 1655.16 99.0138C1639.19 99.0138 1629.99 107 1629.99 117.648Z" fill="black" style="fill:black;fill-opacity:1;"/>
<path d="M1566.24 160.724V84.7363H1587.54V213.238H1566.24V195.814C1557.53 209.366 1543.98 216.142 1527.28 216.142C1500.42 216.142 1484.45 200.412 1484.45 170.646V84.7363H1505.74V166.29C1505.74 185.65 1514.21 197.992 1533.09 197.992C1553.9 197.992 1566.24 179.116 1566.24 160.724Z" fill="black" style="fill:black;fill-opacity:1;"/>
<path d="M1400.43 216.142C1366.31 216.142 1345.74 190.974 1345.74 149.108C1345.74 105.548 1366.8 81.59 1400.43 81.59C1415.68 81.59 1428.02 87.8821 1436.49 99.7401V38.998H1457.79V213.238H1436.49V197.024C1428.02 209.124 1415.68 216.142 1400.43 216.142ZM1401.89 197.75C1424.39 197.75 1436.49 180.568 1436.49 149.108C1436.49 117.89 1423.91 99.982 1401.89 99.982C1379.62 99.982 1367.52 117.406 1367.52 149.108C1367.52 180.084 1380.11 197.75 1401.89 197.75Z" fill="black" style="fill:black;fill-opacity:1;"/>
<path d="M1221.05 213.238V84.7358H1242.34V102.16C1251.06 88.6078 1265.09 81.5898 1282.03 81.5898C1309.38 81.5898 1325.59 97.5618 1325.59 127.328V213.238H1304.3V131.684C1304.3 112.324 1295.58 99.7398 1276.22 99.7398C1254.93 99.7398 1242.34 118.858 1242.34 137.25V213.238H1221.05Z" fill="black" style="fill:black;fill-opacity:1;"/>
<path d="M1170.22 213.238V48.6777H1192.48V213.238H1170.22Z" fill="black" style="fill:black;fill-opacity:1;"/>
<path d="M1106.94 171.372C1099.92 201.38 1078.39 216.142 1049.1 216.142C1011.84 216.142 989.33 190.974 989.33 149.108C989.33 105.548 1011.84 81.5898 1047.89 81.5898C1084.19 81.5898 1105.97 106.516 1105.97 147.414V152.738H1011.11C1012.32 181.536 1025.87 197.75 1049.1 197.75C1067.25 197.75 1080.08 189.038 1084.68 171.372H1106.94ZM1047.89 99.9818C1027.32 99.9818 1014.98 112.808 1011.84 136.766H1083.71C1080.81 113.05 1067.98 99.9818 1047.89 99.9818Z" fill="black" style="fill:black;fill-opacity:1;"/>
<path d="M911.001 213.238L863.085 84.7363H886.075L921.649 184.44L924.795 195.572L927.941 184.44L963.515 84.7363H985.053L937.137 213.238H911.001Z" fill="black" style="fill:black;fill-opacity:1;"/>
<path d="M831.011 67.554V38.998H852.307V67.554H831.011ZM831.011 213.238V84.7361H852.307V213.238H831.011Z" fill="black" style="fill:black;fill-opacity:1;"/>
<path d="M768.386 176.213V101.677H750.478V84.7369H768.386V55.2129H789.682V84.7369H817.996V101.677H789.682V176.213C789.682 191.701 794.28 198.961 813.156 198.961H817.512V214.207C815.092 215.417 809.768 216.143 803.718 216.143C779.76 216.143 768.386 203.317 768.386 176.213Z" fill="black" style="fill:black;fill-opacity:1;"/>
<path d="M653.856 126.602H632.56C636.674 98.2878 655.308 81.5898 686.768 81.5898C721.132 81.5898 737.83 101.676 737.83 131.684V182.262C737.83 197.024 739.04 206.22 742.428 213.238H719.922C717.502 208.156 716.776 200.654 716.534 192.91C705.644 209.124 688.22 216.142 672.732 216.142C646.112 216.142 628.204 203.8 628.204 179.358C628.204 161.692 637.884 148.866 656.76 142.574C674.184 136.766 691.85 135.314 716.534 135.072V132.168C716.534 111.356 706.854 99.9818 684.832 99.9818C666.44 99.9818 656.518 110.146 653.856 126.602ZM649.984 178.874C649.984 190.732 659.906 197.75 674.91 197.75C698.626 197.75 716.534 179.116 716.534 157.094V151.044C661.842 151.528 649.984 163.144 649.984 178.874Z" fill="black" style="fill:black;fill-opacity:1;"/>
<path d="M586.449 213.238V38.998H607.745V213.238H586.449Z" fill="black" style="fill:black;fill-opacity:1;"/>
<path d="M566.299 171.372C559.281 201.38 537.743 216.142 508.461 216.142C471.193 216.142 448.687 190.974 448.687 149.108C448.687 105.548 471.193 81.5898 507.251 81.5898C543.551 81.5898 565.331 106.516 565.331 147.414V152.738H470.467C471.677 181.536 485.229 197.75 508.461 197.75C526.611 197.75 539.437 189.038 544.035 171.372H566.299ZM507.251 99.9818C486.681 99.9818 474.339 112.808 471.193 136.766H543.067C540.163 113.05 527.337 99.9818 507.251 99.9818Z" fill="black" style="fill:black;fill-opacity:1;"/>
<path d="M313.876 213.238V48.6777H373.166C407.772 48.6777 429.794 66.5857 429.794 95.1417C429.794 114.018 420.598 127.328 405.11 134.346C415.758 139.186 421.324 148.14 425.438 164.354L437.78 213.238H414.306L403.9 168.71C399.06 148.14 390.832 144.268 370.988 144.268H336.14V213.238H313.876ZM372.682 66.8277H336.14V126.118H372.198C393.978 126.118 406.804 114.502 406.804 96.3517C406.804 78.2017 393.978 66.8277 372.682 66.8277Z" fill="black" style="fill:black;fill-opacity:1;"/>
<rect width="45.2908" height="45.2908" transform="matrix(0.707187 -0.707026 0.707187 0.707026 0 96.0059)" fill="black" style="fill:black;fill-opacity:1;"/>
<rect width="45.2908" height="45.2908" transform="matrix(0.707187 -0.707026 0.707187 0.707026 0 159.992)" fill="black" style="fill:black;fill-opacity:1;"/>
<rect width="45.2908" height="45.2908" transform="matrix(0.707187 -0.707026 0.707187 0.707026 63.9805 32.0215)" fill="black" style="fill:black;fill-opacity:1;"/>
<rect width="45.2908" height="45.2908" transform="matrix(0.707187 -0.707026 0.707187 0.707026 63.9805 96.0059)" fill="black" style="fill:black;fill-opacity:1;"/>
<rect width="45.2908" height="45.2908" transform="matrix(0.707187 -0.707026 0.707187 0.707026 63.9805 159.992)" fill="black" style="fill:black;fill-opacity:1;"/>
<rect width="45.2908" height="45.2908" transform="matrix(0.707187 -0.707026 0.707187 0.707026 63.9805 223.977)" fill="black" style="fill:black;fill-opacity:1;"/>
<rect width="45.2908" height="45.2908" transform="matrix(0.707187 -0.707026 0.707187 0.707026 127.961 32.0215)" fill="black" style="fill:black;fill-opacity:1;"/>
<rect width="45.2908" height="45.2908" transform="matrix(0.707187 -0.707026 0.707187 0.707026 127.961 96.0059)" fill="black" style="fill:black;fill-opacity:1;"/>
<rect width="45.2908" height="45.2908" transform="matrix(0.707187 -0.707026 0.707187 0.707026 127.961 159.992)" fill="black" style="fill:black;fill-opacity:1;"/>
<rect width="45.2908" height="45.2908" transform="matrix(0.707187 -0.707026 0.707187 0.707026 127.961 223.977)" fill="black" style="fill:black;fill-opacity:1;"/>
<rect width="45.2908" height="45.2908" transform="matrix(0.707187 -0.707026 0.707187 0.707026 191.942 96.0059)" fill="black" style="fill:black;fill-opacity:1;"/>
<rect width="45.2908" height="45.2908" transform="matrix(0.707187 -0.707026 0.707187 0.707026 191.942 159.992)" fill="black" style="fill:black;fill-opacity:1;"/>
</svg>
