<svg width="256" height="256" viewBox="0 0 256 256" fill="none" xmlns="http://www.w3.org/2000/svg">
<rect width="45.2908" height="45.2908" transform="matrix(0.707187 -0.707026 0.707187 0.707026 0 96.0059)" fill="black" style="fill:black;fill-opacity:1;"/>
<rect width="45.2908" height="45.2908" transform="matrix(0.707187 -0.707026 0.707187 0.707026 0 159.992)" fill="black" style="fill:black;fill-opacity:1;"/>
<rect width="45.2908" height="45.2908" transform="matrix(0.707187 -0.707026 0.707187 0.707026 63.9805 32.0215)" fill="black" style="fill:black;fill-opacity:1;"/>
<rect width="45.2908" height="45.2908" transform="matrix(0.707187 -0.707026 0.707187 0.707026 63.9805 96.0059)" fill="black" style="fill:black;fill-opacity:1;"/>
<rect width="45.2908" height="45.2908" transform="matrix(0.707187 -0.707026 0.707187 0.707026 63.9805 159.992)" fill="black" style="fill:black;fill-opacity:1;"/>
<rect width="45.2908" height="45.2908" transform="matrix(0.707187 -0.707026 0.707187 0.707026 63.9805 223.977)" fill="black" style="fill:black;fill-opacity:1;"/>
<rect width="45.2908" height="45.2908" transform="matrix(0.707187 -0.707026 0.707187 0.707026 127.961 32.0215)" fill="black" style="fill:black;fill-opacity:1;"/>
<rect width="45.2908" height="45.2908" transform="matrix(0.707187 -0.707026 0.707187 0.707026 127.961 96.0059)" fill="black" style="fill:black;fill-opacity:1;"/>
<rect width="45.2908" height="45.2908" transform="matrix(0.707187 -0.707026 0.707187 0.707026 127.961 159.992)" fill="black" style="fill:black;fill-opacity:1;"/>
<rect width="45.2908" height="45.2908" transform="matrix(0.707187 -0.707026 0.707187 0.707026 127.961 223.977)" fill="black" style="fill:black;fill-opacity:1;"/>
<rect width="45.2908" height="45.2908" transform="matrix(0.707187 -0.707026 0.707187 0.707026 191.942 96.0059)" fill="black" style="fill:black;fill-opacity:1;"/>
<rect width="45.2908" height="45.2908" transform="matrix(0.707187 -0.707026 0.707187 0.707026 191.942 159.992)" fill="black" style="fill:black;fill-opacity:1;"/>
</svg>
