<svg width="2173" height="256" viewBox="0 0 2173 256" fill="none" xmlns="http://www.w3.org/2000/svg">
<path d="M2088.85 117.65C2088.85 153.466 2172.34 123.942 2172.34 176.94C2172.34 200.898 2151.05 216.144 2120.8 216.144C2090.31 216.144 2069.01 201.624 2064.17 171.374H2085.47C2088.37 189.282 2101.68 199.204 2121.52 199.204C2140.88 199.204 2151.05 190.492 2151.05 178.392C2151.05 143.302 2068.53 172.342 2068.53 119.102C2068.53 99.4998 2083.77 81.5918 2115.23 81.5918C2143.06 81.5918 2163.63 94.6598 2167.75 126.604H2146.45C2143.3 106.518 2132.17 99.0158 2114.02 99.0158C2098.05 99.0158 2088.85 107.002 2088.85 117.65Z" fill="black" style="fill:black;fill-opacity:1;"/>
<path d="M2052.97 171.374C2045.96 201.382 2024.42 216.144 1995.14 216.144C1957.87 216.144 1935.36 190.976 1935.36 149.11C1935.36 105.55 1957.87 81.5918 1993.92 81.5918C2030.22 81.5918 2052.01 106.518 2052.01 147.416V152.74H1957.14C1958.35 181.538 1971.9 197.752 1995.14 197.752C2013.29 197.752 2026.11 189.04 2030.71 171.374H2052.97ZM1993.92 99.9838C1973.35 99.9838 1961.01 112.81 1957.87 136.768H2029.74C2026.84 113.052 2014.01 99.9838 1993.92 99.9838Z" fill="black" style="fill:black;fill-opacity:1;"/>
<path d="M1894.09 67.556V39H1915.39V67.556H1894.09ZM1894.09 213.24V84.738H1915.39V213.24H1894.09Z" fill="black" style="fill:black;fill-opacity:1;"/>
<path d="M1811.07 213.24V84.7378H1832.37V104.582C1841.08 88.8518 1854.88 81.5918 1870.36 81.5918C1875.45 81.5918 1880.04 82.8018 1882.46 84.7378V103.856C1878.83 102.646 1874.24 102.162 1869.15 102.162C1843.5 102.162 1832.37 118.134 1832.37 141.366V213.24H1811.07Z" fill="black" style="fill:black;fill-opacity:1;"/>
<path d="M1748.45 176.215V101.679H1730.54V84.7389H1748.45V55.2148H1769.74V84.7389H1798.06V101.679H1769.74V176.215C1769.74 191.703 1774.34 198.963 1793.22 198.963H1797.57V214.209C1795.15 215.419 1789.83 216.145 1783.78 216.145C1759.82 216.145 1748.45 203.319 1748.45 176.215Z" fill="black" style="fill:black;fill-opacity:1;"/>
<path d="M1643.99 117.65C1643.99 153.466 1727.48 123.942 1727.48 176.94C1727.48 200.898 1706.18 216.144 1675.93 216.144C1645.44 216.144 1624.15 201.624 1619.31 171.374H1640.6C1643.51 189.282 1656.82 199.204 1676.66 199.204C1696.02 199.204 1706.18 190.492 1706.18 178.392C1706.18 143.302 1623.66 172.342 1623.66 119.102C1623.66 99.4998 1638.91 81.5918 1670.37 81.5918C1698.2 81.5918 1718.77 94.6598 1722.88 126.604H1701.59C1698.44 106.518 1687.31 99.0158 1669.16 99.0158C1653.19 99.0158 1643.99 107.002 1643.99 117.65Z" fill="black" style="fill:black;fill-opacity:1;"/>
<path d="M1580.24 160.726V84.7383H1601.54V213.24H1580.24V195.816C1571.53 209.368 1557.98 216.144 1541.28 216.144C1514.42 216.144 1498.45 200.414 1498.45 170.648V84.7383H1519.74V166.292C1519.74 185.652 1528.21 197.994 1547.09 197.994C1567.9 197.994 1580.24 179.118 1580.24 160.726Z" fill="black" style="fill:black;fill-opacity:1;"/>
<path d="M1414.43 216.144C1380.31 216.144 1359.74 190.976 1359.74 149.11C1359.74 105.55 1380.8 81.592 1414.43 81.592C1429.68 81.592 1442.02 87.884 1450.49 99.742V39H1471.79V213.24H1450.49V197.026C1442.02 209.126 1429.68 216.144 1414.43 216.144ZM1415.89 197.752C1438.39 197.752 1450.49 180.57 1450.49 149.11C1450.49 117.892 1437.91 99.984 1415.89 99.984C1393.62 99.984 1381.52 117.408 1381.52 149.11C1381.52 180.086 1394.11 197.752 1415.89 197.752Z" fill="black" style="fill:black;fill-opacity:1;"/>
<path d="M1235.05 213.24V84.7378H1256.34V102.162C1265.06 88.6098 1279.09 81.5918 1296.03 81.5918C1323.38 81.5918 1339.59 97.5638 1339.59 127.33V213.24H1318.3V131.686C1318.3 112.326 1309.58 99.7418 1290.22 99.7418C1268.93 99.7418 1256.34 118.86 1256.34 137.252V213.24H1235.05Z" fill="black" style="fill:black;fill-opacity:1;"/>
<path d="M1184.22 213.24V48.6797H1206.48V213.24H1184.22Z" fill="black" style="fill:black;fill-opacity:1;"/>
<path d="M1130.94 171.374C1123.92 201.382 1102.39 216.144 1073.1 216.144C1035.84 216.144 1013.33 190.976 1013.33 149.11C1013.33 105.55 1035.84 81.5918 1071.89 81.5918C1108.19 81.5918 1129.97 106.518 1129.97 147.416V152.74H1035.11C1036.32 181.538 1049.87 197.752 1073.1 197.752C1091.25 197.752 1104.08 189.04 1108.68 171.374H1130.94ZM1071.89 99.9838C1051.32 99.9838 1038.98 112.81 1035.84 136.768H1107.71C1104.81 113.052 1091.98 99.9838 1071.89 99.9838Z" fill="black" style="fill:black;fill-opacity:1;"/>
<path d="M935.001 213.24L887.085 84.7383H910.075L945.649 184.442L948.795 195.574L951.941 184.442L987.515 84.7383H1009.05L961.137 213.24H935.001Z" fill="black" style="fill:black;fill-opacity:1;"/>
<path d="M855.011 67.556V39H876.307V67.556H855.011ZM855.011 213.24V84.738H876.307V213.24H855.011Z" fill="black" style="fill:black;fill-opacity:1;"/>
<path d="M792.386 176.215V101.679H774.478V84.7389H792.386V55.2148H813.682V84.7389H841.996V101.679H813.682V176.215C813.682 191.703 818.28 198.963 837.156 198.963H841.512V214.209C839.092 215.419 833.768 216.145 827.718 216.145C803.76 216.145 792.386 203.319 792.386 176.215Z" fill="black" style="fill:black;fill-opacity:1;"/>
<path d="M677.856 126.604H656.56C660.674 98.2898 679.308 81.5918 710.768 81.5918C745.132 81.5918 761.83 101.678 761.83 131.686V182.264C761.83 197.026 763.04 206.222 766.428 213.24H743.922C741.502 208.158 740.776 200.656 740.534 192.912C729.644 209.126 712.22 216.144 696.732 216.144C670.112 216.144 652.204 203.802 652.204 179.36C652.204 161.694 661.884 148.868 680.76 142.576C698.184 136.768 715.85 135.316 740.534 135.074V132.17C740.534 111.358 730.854 99.9838 708.832 99.9838C690.44 99.9838 680.518 110.148 677.856 126.604ZM673.984 178.876C673.984 190.734 683.906 197.752 698.91 197.752C722.626 197.752 740.534 179.118 740.534 157.096V151.046C685.842 151.53 673.984 163.146 673.984 178.876Z" fill="black" style="fill:black;fill-opacity:1;"/>
<path d="M610.449 213.24V39H631.745V213.24H610.449Z" fill="black" style="fill:black;fill-opacity:1;"/>
<path d="M590.299 171.374C583.281 201.382 561.743 216.144 532.461 216.144C495.193 216.144 472.687 190.976 472.687 149.11C472.687 105.55 495.193 81.5918 531.251 81.5918C567.551 81.5918 589.331 106.518 589.331 147.416V152.74H494.467C495.677 181.538 509.229 197.752 532.461 197.752C550.611 197.752 563.437 189.04 568.035 171.374H590.299ZM531.251 99.9838C510.681 99.9838 498.339 112.81 495.193 136.768H567.067C564.163 113.052 551.337 99.9838 531.251 99.9838Z" fill="black" style="fill:black;fill-opacity:1;"/>
<path d="M337.876 213.24V48.6797H397.166C431.772 48.6797 453.794 66.5877 453.794 95.1437C453.794 114.02 444.598 127.33 429.11 134.348C439.758 139.188 445.324 148.142 449.438 164.356L461.78 213.24H438.306L427.9 168.712C423.06 148.142 414.832 144.27 394.988 144.27H360.14V213.24H337.876ZM396.682 66.8297H360.14V126.12H396.198C417.978 126.12 430.804 114.504 430.804 96.3537C430.804 78.2037 417.978 66.8297 396.682 66.8297Z" fill="black" style="fill:black;fill-opacity:1;"/>
<rect width="45.2908" height="45.2908" transform="matrix(0.707187 -0.707026 0.707187 0.707026 0 96.0059)" fill="black" style="fill:black;fill-opacity:1;"/>
<rect width="45.2908" height="45.2908" transform="matrix(0.707187 -0.707026 0.707187 0.707026 0 159.992)" fill="black" style="fill:black;fill-opacity:1;"/>
<rect width="45.2908" height="45.2908" transform="matrix(0.707187 -0.707026 0.707187 0.707026 63.9805 32.0215)" fill="black" style="fill:black;fill-opacity:1;"/>
<rect width="45.2908" height="45.2908" transform="matrix(0.707187 -0.707026 0.707187 0.707026 63.9805 96.0059)" fill="black" style="fill:black;fill-opacity:1;"/>
<rect width="45.2908" height="45.2908" transform="matrix(0.707187 -0.707026 0.707187 0.707026 63.9805 159.992)" fill="black" style="fill:black;fill-opacity:1;"/>
<rect width="45.2908" height="45.2908" transform="matrix(0.707187 -0.707026 0.707187 0.707026 63.9805 223.977)" fill="black" style="fill:black;fill-opacity:1;"/>
<rect width="45.2908" height="45.2908" transform="matrix(0.707187 -0.707026 0.707187 0.707026 127.961 32.0215)" fill="black" style="fill:black;fill-opacity:1;"/>
<rect width="45.2908" height="45.2908" transform="matrix(0.707187 -0.707026 0.707187 0.707026 127.961 96.0059)" fill="black" style="fill:black;fill-opacity:1;"/>
<rect width="45.2908" height="45.2908" transform="matrix(0.707187 -0.707026 0.707187 0.707026 127.961 159.992)" fill="black" style="fill:black;fill-opacity:1;"/>
<rect width="45.2908" height="45.2908" transform="matrix(0.707187 -0.707026 0.707187 0.707026 127.961 223.977)" fill="black" style="fill:black;fill-opacity:1;"/>
<rect width="45.2908" height="45.2908" transform="matrix(0.707187 -0.707026 0.707187 0.707026 191.942 96.0059)" fill="black" style="fill:black;fill-opacity:1;"/>
<rect width="45.2908" height="45.2908" transform="matrix(0.707187 -0.707026 0.707187 0.707026 191.942 159.992)" fill="black" style="fill:black;fill-opacity:1;"/>
</svg>
