<svg width="2389" height="256" viewBox="0 0 2389 256" fill="none" xmlns="http://www.w3.org/2000/svg">
<path d="M2337.35 217.354C2326.21 217.354 2316.53 215.579 2308.31 212.03C2300.08 208.481 2293.62 203.56 2288.95 197.268C2284.27 190.976 2281.61 183.877 2280.96 175.972H2313.39C2314.19 179.037 2315.57 181.861 2317.5 184.442C2319.44 186.862 2322.02 188.798 2325.25 190.25C2328.47 191.702 2332.34 192.428 2336.86 192.428C2341.22 192.428 2344.77 191.863 2347.51 190.734C2350.25 189.443 2352.27 187.749 2353.56 185.652C2355.01 183.555 2355.74 181.377 2355.74 179.118C2355.74 175.73 2354.77 173.149 2352.83 171.374C2350.9 169.438 2348.07 167.905 2344.36 166.776C2340.65 165.647 2336.14 164.517 2330.81 163.388C2325 162.259 2319.28 160.887 2313.63 159.274C2308.14 157.499 2303.22 155.321 2298.87 152.74C2294.51 150.159 2291.04 146.851 2288.46 142.818C2285.88 138.785 2284.59 133.783 2284.59 127.814C2284.59 120.554 2286.53 114.101 2290.4 108.454C2294.27 102.646 2299.92 98.0481 2307.34 94.6601C2314.76 91.2721 2323.71 89.5781 2334.2 89.5781C2348.88 89.5781 2360.5 92.8855 2369.05 99.5001C2377.6 106.115 2382.68 115.23 2384.29 126.846H2353.56C2352.59 123.135 2350.41 120.231 2347.03 118.134C2343.8 115.875 2339.44 114.746 2333.96 114.746C2328.15 114.746 2323.71 115.795 2320.65 117.892C2317.58 119.989 2316.05 122.732 2316.05 126.12C2316.05 128.379 2317.02 130.395 2318.95 132.17C2321.05 133.945 2323.96 135.477 2327.67 136.768C2331.38 137.897 2335.89 139.027 2341.22 140.156C2350.58 142.092 2358.8 144.351 2365.9 146.932C2373 149.352 2378.57 152.901 2382.6 157.58C2386.63 162.097 2388.65 168.712 2388.65 177.424C2388.65 185.168 2386.55 192.105 2382.36 198.236C2378.16 204.205 2372.19 208.884 2364.45 212.272C2356.87 215.66 2347.83 217.354 2337.35 217.354Z" fill="black" style="fill:black;fill-opacity:1;"/>
<path d="M2207.74 217.354C2195.48 217.354 2184.59 214.773 2175.07 209.61C2165.71 204.286 2158.37 196.945 2153.05 187.588C2147.89 178.069 2145.3 167.099 2145.3 154.676C2145.3 141.931 2147.89 130.718 2153.05 121.038C2158.37 111.197 2165.71 103.533 2175.07 98.0481C2184.43 92.4015 2195.32 89.5781 2207.74 89.5781C2219.84 89.5781 2230.41 92.2401 2239.44 97.5641C2248.48 102.888 2255.49 110.067 2260.5 119.102C2265.5 128.137 2268 138.381 2268 149.836C2268 151.449 2268 153.305 2268 155.402C2268 157.338 2267.84 159.355 2267.51 161.452H2168.54V141.608H2235.09C2234.6 133.703 2231.78 127.491 2226.62 122.974C2221.61 118.457 2215.32 116.198 2207.74 116.198C2202.25 116.198 2197.17 117.489 2192.49 120.07C2187.82 122.49 2184.1 126.281 2181.36 131.444C2178.78 136.607 2177.49 143.141 2177.49 151.046V158.064C2177.49 164.679 2178.7 170.487 2181.12 175.488C2183.7 180.328 2187.25 184.119 2191.77 186.862C2196.29 189.443 2201.53 190.734 2207.5 190.734C2213.47 190.734 2218.39 189.443 2222.26 186.862C2226.29 184.281 2229.28 180.973 2231.21 176.94H2264.61C2262.35 184.523 2258.56 191.379 2253.24 197.51C2247.91 203.641 2241.38 208.481 2233.63 212.03C2225.89 215.579 2217.26 217.354 2207.74 217.354Z" fill="black" style="fill:black;fill-opacity:1;"/>
<path d="M2090.75 214.45V92.482H2123.42V214.45H2090.75ZM2107.21 75.784C2101.4 75.784 2096.56 74.09 2092.69 70.702C2088.98 67.1527 2087.12 62.716 2087.12 57.392C2087.12 52.068 2088.98 47.712 2092.69 44.324C2096.56 40.7747 2101.4 39 2107.21 39C2113.18 39 2118.02 40.7747 2121.73 44.324C2125.6 47.712 2127.54 52.068 2127.54 57.392C2127.54 62.716 2125.6 67.1527 2121.73 70.702C2118.02 74.09 2113.18 75.784 2107.21 75.784Z" fill="black" style="fill:black;fill-opacity:1;"/>
<path d="M1998.27 214.45V92.4821H2027.31L2030.45 114.988C2033.36 109.664 2036.99 105.147 2041.34 101.436C2045.86 97.7255 2050.94 94.8215 2056.59 92.7241C2062.4 90.6268 2068.77 89.5781 2075.71 89.5781V124.184H2064.57C2059.73 124.184 2055.22 124.749 2051.02 125.878C2046.99 127.007 2043.44 128.863 2040.37 131.444C2037.31 133.864 2034.97 137.252 2033.36 141.608C2031.74 145.964 2030.94 151.449 2030.94 158.064V214.45H1998.27Z" fill="black" style="fill:black;fill-opacity:1;"/>
<path d="M1955.77 214.45C1947.22 214.45 1939.71 213.159 1933.26 210.578C1926.97 207.835 1922.05 203.399 1918.5 197.268C1914.95 190.976 1913.17 182.425 1913.17 171.616V119.828H1892.36V92.4821H1913.17L1916.8 59.3281H1945.84V92.4821H1978.03V119.828H1945.84V172.1C1945.84 177.585 1947.05 181.377 1949.47 183.474C1951.89 185.571 1956.01 186.62 1961.82 186.62H1977.79V214.45H1955.77Z" fill="black" style="fill:black;fill-opacity:1;"/>
<path d="M1832.93 217.354C1821.8 217.354 1812.12 215.579 1803.89 212.03C1795.66 208.481 1789.21 203.56 1784.53 197.268C1779.85 190.976 1777.19 183.877 1776.54 175.972H1808.97C1809.78 179.037 1811.15 181.861 1813.08 184.442C1815.02 186.862 1817.6 188.798 1820.83 190.25C1824.05 191.702 1827.93 192.428 1832.44 192.428C1836.8 192.428 1840.35 191.863 1843.09 190.734C1845.83 189.443 1847.85 187.749 1849.14 185.652C1850.59 183.555 1851.32 181.377 1851.32 179.118C1851.32 175.73 1850.35 173.149 1848.42 171.374C1846.48 169.438 1843.66 167.905 1839.95 166.776C1836.23 165.647 1831.72 164.517 1826.39 163.388C1820.59 162.259 1814.86 160.887 1809.21 159.274C1803.73 157.499 1798.81 155.321 1794.45 152.74C1790.09 150.159 1786.62 146.851 1784.04 142.818C1781.46 138.785 1780.17 133.783 1780.17 127.814C1780.17 120.554 1782.11 114.101 1785.98 108.454C1789.85 102.646 1795.5 98.0481 1802.92 94.6601C1810.34 91.2721 1819.29 89.5781 1829.78 89.5781C1844.46 89.5781 1856.08 92.8855 1864.63 99.5001C1873.18 106.115 1878.26 115.23 1879.88 126.846H1849.14C1848.17 123.135 1846 120.231 1842.61 118.134C1839.38 115.875 1835.02 114.746 1829.54 114.746C1823.73 114.746 1819.29 115.795 1816.23 117.892C1813.16 119.989 1811.63 122.732 1811.63 126.12C1811.63 128.379 1812.6 130.395 1814.54 132.17C1816.63 133.945 1819.54 135.477 1823.25 136.768C1826.96 137.897 1831.48 139.027 1836.8 140.156C1846.16 142.092 1854.38 144.351 1861.48 146.932C1868.58 149.352 1874.15 152.901 1878.18 157.58C1882.21 162.097 1884.23 168.712 1884.23 177.424C1884.23 185.168 1882.13 192.105 1877.94 198.236C1873.74 204.205 1867.78 208.884 1860.03 212.272C1852.45 215.66 1843.41 217.354 1832.93 217.354Z" fill="black" style="fill:black;fill-opacity:1;"/>
<path d="M1686.71 217.352C1676.87 217.352 1668.4 215.336 1661.3 211.302C1654.36 207.108 1649.04 201.058 1645.33 193.152C1641.62 185.086 1639.76 175.164 1639.76 163.386V92.4805H1672.43V159.998C1672.43 169.84 1674.45 177.261 1678.48 182.262C1682.68 187.264 1689.05 189.764 1697.6 189.764C1703.08 189.764 1707.92 188.554 1712.12 186.134C1716.31 183.553 1719.62 179.923 1722.04 175.244C1724.62 170.404 1725.91 164.516 1725.91 157.578V92.4805H1758.34V214.448H1729.78L1727.12 194.604C1723.57 201.542 1718.33 207.108 1711.39 211.302C1704.46 215.336 1696.23 217.352 1686.71 217.352Z" fill="black" style="fill:black;fill-opacity:1;"/>
<path d="M1544.1 217.353C1532.97 217.353 1522.97 214.61 1514.1 209.125C1505.38 203.64 1498.53 196.057 1493.53 186.377C1488.52 176.697 1486.02 165.807 1486.02 153.707C1486.02 141.284 1488.52 130.314 1493.53 120.795C1498.69 111.115 1505.71 103.532 1514.58 98.047C1523.61 92.4003 1533.7 89.577 1544.83 89.577C1553.54 89.577 1561.21 91.1903 1567.82 94.417C1574.43 97.6437 1579.76 102.242 1583.79 108.211V40.209H1616.46V214.449H1587.42L1583.79 197.751C1581.37 201.139 1578.31 204.366 1574.6 207.431C1571.05 210.496 1566.77 212.916 1561.77 214.691C1556.77 216.466 1550.88 217.353 1544.1 217.353ZM1551.85 188.797C1558.3 188.797 1563.95 187.345 1568.79 184.441C1573.79 181.376 1577.66 177.181 1580.4 171.857C1583.15 166.533 1584.52 160.402 1584.52 153.465C1584.52 146.528 1583.15 140.397 1580.4 135.073C1577.66 129.749 1573.79 125.635 1568.79 122.731C1563.95 119.666 1558.3 118.133 1551.85 118.133C1545.72 118.133 1540.15 119.666 1535.15 122.731C1530.15 125.635 1526.2 129.749 1523.29 135.073C1520.55 140.397 1519.18 146.447 1519.18 153.223C1519.18 160.322 1520.55 166.533 1523.29 171.857C1526.2 177.181 1530.07 181.376 1534.91 184.441C1539.91 187.345 1545.56 188.797 1551.85 188.797Z" fill="black" style="fill:black;fill-opacity:1;"/>
<path d="M1347.8 214.45V92.4821H1376.59L1379.01 112.326C1382.73 105.55 1387.97 100.065 1394.74 95.8701C1401.68 91.6755 1409.91 89.5781 1419.43 89.5781C1429.59 89.5781 1438.14 91.6755 1445.08 95.8701C1452.02 100.065 1457.26 106.195 1460.81 114.262C1464.52 122.329 1466.38 132.251 1466.38 144.028V214.45H1433.95V147.174C1433.95 137.494 1431.85 130.073 1427.66 124.91C1423.62 119.747 1417.33 117.166 1408.78 117.166C1403.3 117.166 1398.37 118.457 1394.02 121.038C1389.82 123.619 1386.52 127.33 1384.1 132.17C1381.68 136.849 1380.47 142.576 1380.47 149.352V214.45H1347.8Z" fill="black" style="fill:black;fill-opacity:1;"/>
<path d="M1289.85 214.449V45.0488H1322.52V214.449H1289.85Z" fill="black" style="fill:black;fill-opacity:1;"/>
<path d="M1159.67 217.354C1147.41 217.354 1136.52 214.773 1127 209.61C1117.64 204.286 1110.3 196.945 1104.98 187.588C1099.82 178.069 1097.24 167.099 1097.24 154.676C1097.24 141.931 1099.82 130.718 1104.98 121.038C1110.3 111.197 1117.64 103.533 1127 98.0481C1136.36 92.4015 1147.25 89.5781 1159.67 89.5781C1171.77 89.5781 1182.34 92.2401 1191.37 97.5641C1200.41 102.888 1207.43 110.067 1212.43 119.102C1217.43 128.137 1219.93 138.381 1219.93 149.836C1219.93 151.449 1219.93 153.305 1219.93 155.402C1219.93 157.338 1219.77 159.355 1219.45 161.452H1120.47V141.608H1187.02C1186.53 133.703 1183.71 127.491 1178.55 122.974C1173.55 118.457 1167.25 116.198 1159.67 116.198C1154.19 116.198 1149.1 117.489 1144.43 120.07C1139.75 122.49 1136.04 126.281 1133.29 131.444C1130.71 136.607 1129.42 143.141 1129.42 151.046V158.064C1129.42 164.679 1130.63 170.487 1133.05 175.488C1135.63 180.328 1139.18 184.119 1143.7 186.862C1148.22 189.443 1153.46 190.734 1159.43 190.734C1165.4 190.734 1170.32 189.443 1174.19 186.862C1178.23 184.281 1181.21 180.973 1183.15 176.94H1216.54C1214.28 184.523 1210.49 191.379 1205.17 197.51C1199.84 203.641 1193.31 208.481 1185.57 212.03C1177.82 215.579 1169.19 217.354 1159.67 217.354Z" fill="black" style="fill:black;fill-opacity:1;"/>
<path d="M1009.88 214.448L965.106 92.4805H999.47L1029.72 183.714L1059.97 92.4805H1094.09L1049.56 214.448H1009.88Z" fill="black" style="fill:black;fill-opacity:1;"/>
<path d="M918.784 214.45V92.482H951.454V214.45H918.784ZM935.24 75.784C929.432 75.784 924.592 74.09 920.72 70.702C917.009 67.1527 915.154 62.716 915.154 57.392C915.154 52.068 917.009 47.712 920.72 44.324C924.592 40.7747 929.432 39 935.24 39C941.209 39 946.049 40.7747 949.76 44.324C953.632 47.712 955.568 52.068 955.568 57.392C955.568 62.716 953.632 67.1527 949.76 70.702C946.049 74.09 941.209 75.784 935.24 75.784Z" fill="black" style="fill:black;fill-opacity:1;"/>
<path d="M875.558 214.45C867.008 214.45 859.506 213.159 853.052 210.578C846.76 207.835 841.84 203.399 838.29 197.268C834.741 190.976 832.966 182.425 832.966 171.616V119.828H812.154V92.4821H832.966L836.596 59.3281H865.636V92.4821H897.822V119.828H865.636V172.1C865.636 177.585 866.846 181.377 869.266 183.474C871.686 185.571 875.8 186.62 881.608 186.62H897.58V214.45H875.558Z" fill="black" style="fill:black;fill-opacity:1;"/>
<path d="M728.645 217.354C718.481 217.354 710.092 215.741 703.477 212.514C696.863 209.126 691.942 204.689 688.715 199.204C685.65 193.557 684.117 187.346 684.117 180.57C684.117 173.149 685.973 166.615 689.683 160.968C693.555 155.321 699.283 150.885 706.865 147.658C714.609 144.431 724.289 142.818 735.905 142.818H766.155C766.155 136.849 765.349 131.928 763.735 128.056C762.122 124.023 759.621 121.038 756.233 119.102C752.845 117.166 748.328 116.198 742.681 116.198C736.551 116.198 731.307 117.569 726.951 120.312C722.757 122.893 720.175 126.927 719.207 132.412H687.505C688.312 123.7 691.135 116.198 695.975 109.906C700.977 103.453 707.511 98.4515 715.577 94.9021C723.805 91.3528 732.921 89.5781 742.923 89.5781C754.378 89.5781 764.3 91.5141 772.689 95.3861C781.079 99.2581 787.532 104.824 792.049 112.084C796.567 119.344 798.825 128.298 798.825 138.946V214.45H771.237L767.607 195.816C765.833 199.043 763.735 201.947 761.315 204.528C758.895 207.109 756.072 209.368 752.845 211.304C749.619 213.24 745.989 214.692 741.955 215.66C737.922 216.789 733.485 217.354 728.645 217.354ZM736.389 192.186C740.584 192.186 744.295 191.46 747.521 190.008C750.909 188.395 753.813 186.297 756.233 183.716C758.653 180.973 760.509 177.908 761.799 174.52C763.251 170.971 764.219 167.179 764.703 163.146V162.904H739.777C734.776 162.904 730.662 163.549 727.435 164.84C724.37 165.969 722.111 167.663 720.659 169.922C719.207 172.181 718.481 174.762 718.481 177.666C718.481 180.893 719.207 183.555 720.659 185.652C722.111 187.749 724.209 189.363 726.951 190.492C729.694 191.621 732.84 192.186 736.389 192.186Z" fill="black" style="fill:black;fill-opacity:1;"/>
<path d="M630.248 214.449V40.209H662.918V214.449H630.248Z" fill="black" style="fill:black;fill-opacity:1;"/>
<path d="M550.494 217.354C538.233 217.354 527.343 214.773 517.824 209.61C508.467 204.286 501.126 196.945 495.802 187.588C490.639 178.069 488.058 167.099 488.058 154.676C488.058 141.931 490.639 130.718 495.802 121.038C501.126 111.197 508.467 103.533 517.824 98.0481C527.181 92.4015 538.071 89.5781 550.494 89.5781C562.594 89.5781 573.161 92.2401 582.196 97.5641C591.231 102.888 598.249 110.067 603.25 119.102C608.251 128.137 610.752 138.381 610.752 149.836C610.752 151.449 610.752 153.305 610.752 155.402C610.752 157.338 610.591 159.355 610.268 161.452H511.29V141.608H577.84C577.356 133.703 574.533 127.491 569.37 122.974C564.369 118.457 558.077 116.198 550.494 116.198C545.009 116.198 539.927 117.489 535.248 120.07C530.569 122.49 526.859 126.281 524.116 131.444C521.535 136.607 520.244 143.141 520.244 151.046V158.064C520.244 164.679 521.454 170.487 523.874 175.488C526.455 180.328 530.005 184.119 534.522 186.862C539.039 189.443 544.283 190.734 550.252 190.734C556.221 190.734 561.142 189.443 565.014 186.862C569.047 184.281 572.032 180.973 573.968 176.94H607.364C605.105 184.523 601.314 191.379 595.99 197.51C590.666 203.641 584.132 208.481 576.388 212.03C568.644 215.579 560.013 217.354 550.494 217.354Z" fill="black" style="fill:black;fill-opacity:1;"/>
<path d="M354.574 214.449V45.0488H417.736C431.449 45.0488 442.743 47.3882 451.616 52.0668C460.489 56.7455 467.104 63.0375 471.46 70.9428C475.816 78.6868 477.994 87.3182 477.994 96.8368C477.994 105.872 475.897 114.342 471.702 122.247C467.507 129.991 460.893 136.283 451.858 141.123C442.985 145.801 431.53 148.141 417.494 148.141H387.244V214.449H354.574ZM442.42 214.449L407.572 139.913H442.904L479.688 214.449H442.42ZM387.244 124.425H415.8C425.641 124.425 432.901 122.005 437.58 117.165C442.259 112.325 444.598 105.952 444.598 98.0468C444.598 90.1415 442.259 83.9302 437.58 79.4128C433.063 74.7342 425.803 72.3948 415.8 72.3948H387.244V124.425Z" fill="black" style="fill:black;fill-opacity:1;"/>
<rect width="45.2908" height="45.2908" transform="matrix(0.707187 -0.707026 0.707187 0.707026 0 96.0059)" fill="black" style="fill:black;fill-opacity:1;"/>
<rect width="45.2908" height="45.2908" transform="matrix(0.707187 -0.707026 0.707187 0.707026 0 159.992)" fill="black" style="fill:black;fill-opacity:1;"/>
<rect width="45.2908" height="45.2908" transform="matrix(0.707187 -0.707026 0.707187 0.707026 63.9805 32.0215)" fill="black" style="fill:black;fill-opacity:1;"/>
<rect width="45.2908" height="45.2908" transform="matrix(0.707187 -0.707026 0.707187 0.707026 63.9805 96.0059)" fill="black" style="fill:black;fill-opacity:1;"/>
<rect width="45.2908" height="45.2908" transform="matrix(0.707187 -0.707026 0.707187 0.707026 63.9805 159.992)" fill="black" style="fill:black;fill-opacity:1;"/>
<rect width="45.2908" height="45.2908" transform="matrix(0.707187 -0.707026 0.707187 0.707026 63.9805 223.977)" fill="black" style="fill:black;fill-opacity:1;"/>
<rect width="45.2908" height="45.2908" transform="matrix(0.707187 -0.707026 0.707187 0.707026 127.961 32.0215)" fill="black" style="fill:black;fill-opacity:1;"/>
<rect width="45.2908" height="45.2908" transform="matrix(0.707187 -0.707026 0.707187 0.707026 127.961 96.0059)" fill="black" style="fill:black;fill-opacity:1;"/>
<rect width="45.2908" height="45.2908" transform="matrix(0.707187 -0.707026 0.707187 0.707026 127.961 159.992)" fill="black" style="fill:black;fill-opacity:1;"/>
<rect width="45.2908" height="45.2908" transform="matrix(0.707187 -0.707026 0.707187 0.707026 127.961 223.977)" fill="black" style="fill:black;fill-opacity:1;"/>
<rect width="45.2908" height="45.2908" transform="matrix(0.707187 -0.707026 0.707187 0.707026 191.942 96.0059)" fill="black" style="fill:black;fill-opacity:1;"/>
<rect width="45.2908" height="45.2908" transform="matrix(0.707187 -0.707026 0.707187 0.707026 191.942 159.992)" fill="black" style="fill:black;fill-opacity:1;"/>
</svg>
