<svg width="2147" height="256" viewBox="0 0 2147 256" fill="none" xmlns="http://www.w3.org/2000/svg">
<path d="M2062.85 117.648C2062.85 153.464 2146.34 123.94 2146.34 176.938C2146.34 200.896 2125.05 216.142 2094.8 216.142C2064.31 216.142 2043.01 201.622 2038.17 171.372H2059.47C2062.37 189.28 2075.68 199.202 2095.52 199.202C2114.88 199.202 2125.05 190.49 2125.05 178.39C2125.05 143.3 2042.53 172.34 2042.53 119.1C2042.53 99.4978 2057.77 81.5898 2089.23 81.5898C2117.06 81.5898 2137.63 94.6578 2141.75 126.602H2120.45C2117.3 106.516 2106.17 99.0138 2088.02 99.0138C2072.05 99.0138 2062.85 107 2062.85 117.648Z" fill="black" style="fill:black;fill-opacity:1;"/>
<path d="M2026.97 171.372C2019.96 201.38 1998.42 216.142 1969.14 216.142C1931.87 216.142 1909.36 190.974 1909.36 149.108C1909.36 105.548 1931.87 81.5898 1967.92 81.5898C2004.22 81.5898 2026.01 106.516 2026.01 147.414V152.738H1931.14C1932.35 181.536 1945.9 197.75 1969.14 197.75C1987.29 197.75 2000.11 189.038 2004.71 171.372H2026.97ZM1967.92 99.9818C1947.35 99.9818 1935.01 112.808 1931.87 136.766H2003.74C2000.84 113.05 1988.01 99.9818 1967.92 99.9818Z" fill="black" style="fill:black;fill-opacity:1;"/>
<path d="M1868.09 67.554V38.998H1889.39V67.554H1868.09ZM1868.09 213.238V84.7361H1889.39V213.238H1868.09Z" fill="black" style="fill:black;fill-opacity:1;"/>
<path d="M1785.07 213.238V84.7358H1806.37V104.58C1815.08 88.8499 1828.88 81.5898 1844.36 81.5898C1849.45 81.5898 1854.04 82.7998 1856.46 84.7358V103.854C1852.83 102.644 1848.24 102.16 1843.15 102.16C1817.5 102.16 1806.37 118.132 1806.37 141.364V213.238H1785.07Z" fill="black" style="fill:black;fill-opacity:1;"/>
<path d="M1722.45 176.213V101.677H1704.54V84.7369H1722.45V55.2129H1743.74V84.7369H1772.06V101.677H1743.74V176.213C1743.74 191.701 1748.34 198.961 1767.22 198.961H1771.57V214.207C1769.15 215.417 1763.83 216.143 1757.78 216.143C1733.82 216.143 1722.45 203.317 1722.45 176.213Z" fill="black" style="fill:black;fill-opacity:1;"/>
<path d="M1617.99 117.648C1617.99 153.464 1701.48 123.94 1701.48 176.938C1701.48 200.896 1680.18 216.142 1649.93 216.142C1619.44 216.142 1598.15 201.622 1593.31 171.372H1614.6C1617.51 189.28 1630.82 199.202 1650.66 199.202C1670.02 199.202 1680.18 190.49 1680.18 178.39C1680.18 143.3 1597.66 172.34 1597.66 119.1C1597.66 99.4978 1612.91 81.5898 1644.37 81.5898C1672.2 81.5898 1692.77 94.6578 1696.88 126.602H1675.59C1672.44 106.516 1661.31 99.0138 1643.16 99.0138C1627.19 99.0138 1617.99 107 1617.99 117.648Z" fill="black" style="fill:black;fill-opacity:1;"/>
<path d="M1554.24 160.724V84.7363H1575.54V213.238H1554.24V195.814C1545.53 209.366 1531.98 216.142 1515.28 216.142C1488.42 216.142 1472.45 200.412 1472.45 170.646V84.7363H1493.74V166.29C1493.74 185.65 1502.21 197.992 1521.09 197.992C1541.9 197.992 1554.24 179.116 1554.24 160.724Z" fill="black" style="fill:black;fill-opacity:1;"/>
<path d="M1388.43 216.142C1354.31 216.142 1333.74 190.974 1333.74 149.108C1333.74 105.548 1354.8 81.59 1388.43 81.59C1403.68 81.59 1416.02 87.8821 1424.49 99.7401V38.998H1445.79V213.238H1424.49V197.024C1416.02 209.124 1403.68 216.142 1388.43 216.142ZM1389.89 197.75C1412.39 197.75 1424.49 180.568 1424.49 149.108C1424.49 117.89 1411.91 99.982 1389.89 99.982C1367.62 99.982 1355.52 117.406 1355.52 149.108C1355.52 180.084 1368.11 197.75 1389.89 197.75Z" fill="black" style="fill:black;fill-opacity:1;"/>
<path d="M1209.05 213.238V84.7358H1230.34V102.16C1239.06 88.6078 1253.09 81.5898 1270.03 81.5898C1297.38 81.5898 1313.59 97.5618 1313.59 127.328V213.238H1292.3V131.684C1292.3 112.324 1283.58 99.7398 1264.22 99.7398C1242.93 99.7398 1230.34 118.858 1230.34 137.25V213.238H1209.05Z" fill="black" style="fill:black;fill-opacity:1;"/>
<path d="M1158.22 213.238V48.6777H1180.48V213.238H1158.22Z" fill="black" style="fill:black;fill-opacity:1;"/>
<path d="M1111.94 171.372C1104.92 201.38 1083.39 216.142 1054.1 216.142C1016.84 216.142 994.33 190.974 994.33 149.108C994.33 105.548 1016.84 81.5898 1052.89 81.5898C1089.19 81.5898 1110.97 106.516 1110.97 147.414V152.738H1016.11C1017.32 181.536 1030.87 197.75 1054.1 197.75C1072.25 197.75 1085.08 189.038 1089.68 171.372H1111.94ZM1052.89 99.9818C1032.32 99.9818 1019.98 112.808 1016.84 136.766H1088.71C1085.81 113.05 1072.98 99.9818 1052.89 99.9818Z" fill="black" style="fill:black;fill-opacity:1;"/>
<path d="M916.001 213.238L868.085 84.7363H891.075L926.649 184.44L929.795 195.572L932.941 184.44L968.515 84.7363H990.053L942.137 213.238H916.001Z" fill="black" style="fill:black;fill-opacity:1;"/>
<path d="M836.011 67.554V38.998H857.307V67.554H836.011ZM836.011 213.238V84.7361H857.307V213.238H836.011Z" fill="black" style="fill:black;fill-opacity:1;"/>
<path d="M773.386 176.213V101.677H755.478V84.7369H773.386V55.2129H794.682V84.7369H822.996V101.677H794.682V176.213C794.682 191.701 799.28 198.961 818.156 198.961H822.512V214.207C820.092 215.417 814.768 216.143 808.718 216.143C784.76 216.143 773.386 203.317 773.386 176.213Z" fill="black" style="fill:black;fill-opacity:1;"/>
<path d="M658.856 126.602H637.56C641.674 98.2878 660.308 81.5898 691.768 81.5898C726.132 81.5898 742.83 101.676 742.83 131.684V182.262C742.83 197.024 744.04 206.22 747.428 213.238H724.922C722.502 208.156 721.776 200.654 721.534 192.91C710.644 209.124 693.22 216.142 677.732 216.142C651.112 216.142 633.204 203.8 633.204 179.358C633.204 161.692 642.884 148.866 661.76 142.574C679.184 136.766 696.85 135.314 721.534 135.072V132.168C721.534 111.356 711.854 99.9818 689.832 99.9818C671.44 99.9818 661.518 110.146 658.856 126.602ZM654.984 178.874C654.984 190.732 664.906 197.75 679.91 197.75C703.626 197.75 721.534 179.116 721.534 157.094V151.044C666.842 151.528 654.984 163.144 654.984 178.874Z" fill="black" style="fill:black;fill-opacity:1;"/>
<path d="M591.449 213.238V38.998H612.745V213.238H591.449Z" fill="black" style="fill:black;fill-opacity:1;"/>
<path d="M571.299 171.372C564.281 201.38 542.743 216.142 513.461 216.142C476.193 216.142 453.687 190.974 453.687 149.108C453.687 105.548 476.193 81.5898 512.251 81.5898C548.551 81.5898 570.331 106.516 570.331 147.414V152.738H475.467C476.677 181.536 490.229 197.75 513.461 197.75C531.611 197.75 544.437 189.038 549.035 171.372H571.299ZM512.251 99.9818C491.681 99.9818 479.339 112.808 476.193 136.766H548.067C545.163 113.05 532.337 99.9818 512.251 99.9818Z" fill="black" style="fill:black;fill-opacity:1;"/>
<path d="M318.876 213.238V48.6777H378.166C412.772 48.6777 434.794 66.5857 434.794 95.1417C434.794 114.018 425.598 127.328 410.11 134.346C420.758 139.186 426.324 148.14 430.438 164.354L442.78 213.238H419.306L408.9 168.71C404.06 148.14 395.832 144.268 375.988 144.268H341.14V213.238H318.876ZM377.682 66.8277H341.14V126.118H377.198C398.978 126.118 411.804 114.502 411.804 96.3517C411.804 78.2017 398.978 66.8277 377.682 66.8277Z" fill="black" style="fill:black;fill-opacity:1;"/>
<rect width="45.2908" height="45.2908" transform="matrix(0.707187 -0.707026 0.707187 0.707026 0 96.0059)" fill="black" style="fill:black;fill-opacity:1;"/>
<rect width="45.2908" height="45.2908" transform="matrix(0.707187 -0.707026 0.707187 0.707026 0 159.992)" fill="black" style="fill:black;fill-opacity:1;"/>
<rect width="45.2908" height="45.2908" transform="matrix(0.707187 -0.707026 0.707187 0.707026 63.9805 32.0215)" fill="black" style="fill:black;fill-opacity:1;"/>
<rect width="45.2908" height="45.2908" transform="matrix(0.707187 -0.707026 0.707187 0.707026 63.9805 96.0059)" fill="black" style="fill:black;fill-opacity:1;"/>
<rect width="45.2908" height="45.2908" transform="matrix(0.707187 -0.707026 0.707187 0.707026 63.9805 159.992)" fill="black" style="fill:black;fill-opacity:1;"/>
<rect width="45.2908" height="45.2908" transform="matrix(0.707187 -0.707026 0.707187 0.707026 63.9805 223.977)" fill="black" style="fill:black;fill-opacity:1;"/>
<rect width="45.2908" height="45.2908" transform="matrix(0.707187 -0.707026 0.707187 0.707026 127.961 32.0215)" fill="black" style="fill:black;fill-opacity:1;"/>
<rect width="45.2908" height="45.2908" transform="matrix(0.707187 -0.707026 0.707187 0.707026 127.961 96.0059)" fill="black" style="fill:black;fill-opacity:1;"/>
<rect width="45.2908" height="45.2908" transform="matrix(0.707187 -0.707026 0.707187 0.707026 127.961 159.992)" fill="black" style="fill:black;fill-opacity:1;"/>
<rect width="45.2908" height="45.2908" transform="matrix(0.707187 -0.707026 0.707187 0.707026 127.961 223.977)" fill="black" style="fill:black;fill-opacity:1;"/>
<rect width="45.2908" height="45.2908" transform="matrix(0.707187 -0.707026 0.707187 0.707026 191.942 96.0059)" fill="black" style="fill:black;fill-opacity:1;"/>
<rect width="45.2908" height="45.2908" transform="matrix(0.707187 -0.707026 0.707187 0.707026 191.942 159.992)" fill="black" style="fill:black;fill-opacity:1;"/>
</svg>
